<svg
  xmlns="http://www.w3.org/2000/svg"
  width="120"
  height="19"
  viewBox="0 0 120 19"
><g fill="#fff"><path
      d="M14.0027 0.318141C10.134 0.315555 6.09832 1.17686 2.02274 2.29359C1.5056 2.39705 0.999584 2.73071 0.733814 3.14456C0.488336 3.53383 0.398655 3.92504 0.322066 4.33694C-0.0739715 6.52707 -0.0255306 8.67905 0.0562953 11.0606C0.0739697 11.6063 0.158414 12.2556 0.414365 12.6474C0.685373 13.0438 1.14556 13.296 1.6974 13.3794C2.40634 13.4854 3.11135 13.5669 3.81767 13.64L3.66187 17.9439C3.63569 18.2847 3.8072 18.5705 4.01732 18.7348C4.20651 18.8757 4.41664 18.9391 4.63069 18.9546C5.06011 18.987 5.56678 18.8027 5.81749 18.3332C6.91724 16.2414 7.60719 15.3199 8.98056 13.9297C12.5678 14.0189 15.6975 13.8217 19.2396 13.5611C20.4925 13.5314 21.3539 12.5181 21.5818 11.7098C22.2593 9.61602 22.3666 7.03209 22.438 4.41777C22.4687 3.38187 22.1054 2.36666 21.4613 1.82867C20.8479 1.33852 20.1089 1.16199 19.4287 0.980289C17.5415 0.558041 15.6543 0.331074 14.0021 0.318141H14.0027ZM19.1577 1.95476C19.8379 2.13711 20.4388 2.31364 20.8139 2.61691C21.4462 3.27841 21.4253 3.7207 21.4181 4.43523C21.3461 6.96872 21.2237 9.42914 20.643 11.2934C20.3923 11.9879 19.9603 12.4832 19.1374 12.5562C15.5266 12.8214 12.3943 13.0263 8.76585 12.9222C8.69545 12.9202 8.62536 12.9323 8.55985 12.9578C8.49435 12.9834 8.43481 13.0219 8.38486 13.071C6.86028 14.5918 6.08065 15.651 4.91741 17.8605C4.89123 17.911 4.83231 17.9414 4.75899 17.9465C4.71317 17.944 4.69223 17.9058 4.68961 17.8735L4.8454 13.2048C4.84595 13.0788 4.80011 12.9568 4.71642 12.8616C4.63273 12.7665 4.51688 12.7046 4.39045 12.6875C3.54316 12.6069 2.6982 12.5041 1.85647 12.3791C1.49316 12.326 1.36027 12.2277 1.26077 12.0816C1.08665 11.6723 1.08927 11.4195 1.07683 11.0276C0.994348 8.66353 0.956381 6.60014 1.32165 4.54645C1.35766 4.24124 1.47287 3.93021 1.59528 3.67285C1.79821 3.35924 2.10718 3.31397 2.41877 3.22797C6.40271 2.14163 10.3002 1.32882 13.9719 1.32624C15.7721 1.38896 17.6593 1.56872 19.1577 1.95476V1.95476ZM5.39527 5.95868C4.8454 6.6079 4.89908 7.48925 5.32327 8.08027C5.54583 8.39065 5.89147 8.63831 6.31107 8.69457C6.85832 8.73983 7.20592 8.51998 7.57904 8.26974C8.25656 7.68906 8.3253 6.67321 7.80946 5.93864C7.68471 5.759 7.51957 5.6103 7.32697 5.50418C7.13437 5.39806 6.91953 5.3374 6.69925 5.32693C6.11141 5.3321 5.71276 5.59011 5.39527 5.95868V5.95868ZM11.3326 5.42845C10.786 5.44591 10.3435 5.81966 10.0724 6.2238C9.76478 6.68291 9.58411 7.26164 9.83417 7.83003C10.3153 8.91895 11.9773 8.90602 12.6398 7.7977C12.9435 7.28686 12.867 6.70619 12.6398 6.28717C12.412 5.86492 12.069 5.52156 11.5708 5.44332C11.4921 5.43096 11.4123 5.42598 11.3326 5.42845V5.42845ZM16.1531 5.52932C15.9816 5.525 15.8102 5.54371 15.6438 5.58493C14.9866 5.75952 14.4269 6.42814 14.5113 7.28492C14.5545 7.71687 14.7542 8.13847 15.1175 8.42622C15.4802 8.7172 16.0045 8.84588 16.5596 8.73466C17.1959 8.60534 17.5926 8.09773 17.7228 7.60823C17.8557 7.11809 17.823 6.62019 17.516 6.21604C17.3569 6.00645 17.1514 5.8356 16.9151 5.71657C16.6789 5.59754 16.4182 5.53349 16.1531 5.52932V5.52932ZM6.65539 6.33244C6.77584 6.33502 6.87272 6.37253 6.97222 6.51414C7.19479 6.83228 7.13326 7.31273 6.90873 7.50671C6.68616 7.69876 6.54542 7.71687 6.44592 7.70394C6.34838 7.68906 6.24888 7.62311 6.1592 7.4996C5.99031 7.26164 5.93925 6.87819 6.16444 6.60273C6.28227 6.44624 6.50221 6.34731 6.65539 6.33244ZM11.4039 6.44366C11.4216 6.44624 11.6363 6.56975 11.7391 6.75921C11.8412 6.94867 11.8589 7.12326 11.762 7.28492C11.4726 7.76989 10.8586 7.63798 10.767 7.42847C10.731 7.34764 10.7572 7.02433 10.9254 6.77473C11.0943 6.5219 11.3038 6.42814 11.4033 6.44366H11.4039ZM16.6945 6.81223C16.7252 6.85556 16.8018 7.13038 16.7429 7.34764C16.684 7.5675 16.5871 7.70135 16.3514 7.7492C16.0503 7.81257 15.8814 7.7492 15.7531 7.64833C15.6281 7.54745 15.541 7.37545 15.5234 7.19116C15.4775 6.73658 15.6432 6.63053 15.907 6.56199C16.2113 6.48633 16.5563 6.6176 16.6945 6.81223ZM28.8512 2.35438C28.8586 2.22631 28.9091 2.10435 28.9945 2.00778C29.0371 1.95743 29.0909 1.91738 29.1516 1.89071C29.2123 1.86403 29.2783 1.85144 29.3447 1.85388H32.7638C32.879 1.85388 32.9994 1.90173 33.1218 1.9955C33.1791 2.03662 33.2255 2.09062 33.2574 2.15304C33.2893 2.21545 33.3056 2.28447 33.3051 2.35438V7.74467H39.0264V2.35438C39.0259 2.2875 39.0391 2.22123 39.0652 2.15952C39.0913 2.09781 39.1297 2.04194 39.1782 1.99527C39.2267 1.94859 39.2842 1.91206 39.3473 1.88788C39.4104 1.8637 39.4778 1.85235 39.5455 1.85453H42.9174C43.0712 1.85453 43.2041 1.89204 43.3193 1.96769C43.4345 2.04335 43.4928 2.16491 43.4928 2.3311V18.2395C43.4928 18.4063 43.4417 18.5304 43.3422 18.6132C43.2427 18.6966 43.1118 18.7393 42.9508 18.7393H39.5448C39.4081 18.7446 39.2742 18.6997 39.1691 18.6132C39.0742 18.5298 39.0257 18.4063 39.0257 18.2395V11.7809H33.3058V18.2395C33.3058 18.3985 33.2547 18.5227 33.15 18.608C33.0472 18.6966 32.9071 18.7393 32.7304 18.7393H29.3447C29.0227 18.7393 28.859 18.5906 28.8512 18.2951V2.35438ZM60.3443 18.5453C60.2536 18.6238 60.1445 18.6784 60.0268 18.7044C59.9227 18.7265 59.8165 18.7382 59.71 18.7393H57.9714C57.8332 18.7393 57.7154 18.7141 57.6159 18.6662C57.5184 18.618 57.4321 18.5502 57.3626 18.4671C57.2913 18.3803 57.2326 18.2841 57.1885 18.1813C57.1421 18.0747 57.1036 17.9649 57.0733 17.8528L56.7178 16.3979C56.6032 16.6332 56.4344 16.8984 56.217 17.199C55.9794 17.5157 55.6987 17.7985 55.3831 18.0397C55.0157 18.3179 54.6081 18.5403 54.174 18.6992C53.706 18.8783 53.1692 18.9669 52.563 18.9669C51.6884 18.9669 50.8938 18.8001 50.1802 18.4671C49.481 18.1444 48.8586 17.6794 48.3539 17.1027C47.8531 16.5272 47.4636 15.8528 47.188 15.0852C46.9081 14.2935 46.768 13.4601 46.7737 12.6215V5.17562C46.7737 4.88787 46.8352 4.66801 46.9635 4.52123C47.0879 4.3725 47.2908 4.29879 47.5664 4.29879H50.2261C50.5553 4.29879 50.7805 4.3544 50.9062 4.46303C51.0286 4.57425 51.0895 4.78635 51.0895 5.10707V12.5084C51.0895 12.8343 51.1641 13.1421 51.3121 13.435C51.6156 14.0228 52.1217 14.4842 52.7391 14.736C53.0513 14.8654 53.3682 14.93 53.6909 14.93C53.9665 14.93 54.2532 14.8654 54.5471 14.736C54.8437 14.6067 55.1147 14.4353 55.3654 14.2207C55.6135 14.0034 55.8203 13.7486 55.982 13.4576C56.1431 13.1647 56.2223 12.8563 56.2223 12.531V5.14005C56.2223 5.01137 56.2478 4.88269 56.2962 4.75402C56.3393 4.63526 56.4178 4.53221 56.5214 4.45851C56.6209 4.39772 56.7158 4.35505 56.8029 4.33177C56.8919 4.30913 56.994 4.29943 57.1093 4.29943H59.71C60.0399 4.29943 60.2776 4.37703 60.4235 4.53675C60.5689 4.69582 60.6435 4.9105 60.6435 5.17562V17.8987C60.6435 18.0422 60.6101 18.1735 60.5433 18.2951C60.4827 18.4131 60.3897 18.5119 60.2749 18.5802L60.3443 18.5453ZM73.7075 16.9766C73.5 17.1809 73.2702 17.4008 73.0221 17.6362C72.7714 17.8709 72.4978 18.0907 72.1986 18.2951C71.8995 18.4994 71.5767 18.6688 71.2318 18.8027C70.8748 18.9361 70.496 19.003 70.1143 18.9999C69.0716 18.9999 68.1099 18.8078 67.2328 18.4212C66.3756 18.0499 65.6038 17.5102 64.9645 16.835C64.3302 16.1631 63.8373 15.3723 63.4786 14.4631C63.1238 13.554 62.9444 12.5763 62.9444 11.5307C62.9444 10.4773 63.1238 9.49704 63.4792 8.59046C63.8367 7.68648 64.3302 6.89824 64.9652 6.22639C65.6032 5.55121 66.375 5.01303 67.2328 4.64538C68.1099 4.26387 69.0716 4.07182 70.1143 4.07182C70.5082 4.06723 70.9 4.12867 71.273 4.25352C71.6094 4.36842 71.9298 4.52462 72.2268 4.71845C72.5154 4.9105 72.7792 5.12259 73.0221 5.36249C73.2623 5.59981 73.4928 5.83453 73.7075 6.06214V0.863249C73.7075 0.62141 73.7815 0.417076 73.93 0.250245C74.0806 0.0834152 74.3058 0 74.6043 0H77.1952C77.2947 0 77.3995 0.0226317 77.5094 0.0633693C77.622 0.106047 77.7241 0.164243 77.8164 0.239899C77.9081 0.315554 77.9827 0.40673 78.039 0.512777C78.0979 0.618824 78.1261 0.735217 78.1261 0.863896V17.8631C78.1261 18.4464 77.8165 18.7393 77.1952 18.7393H74.9368C74.7837 18.7393 74.6658 18.7199 74.582 18.6811C74.4983 18.6452 74.4251 18.5889 74.3693 18.5175C74.304 18.4347 74.2515 18.3427 74.2135 18.2446C74.1677 18.136 74.1088 18.0073 74.0394 17.8631L73.7075 16.9766ZM67.0868 11.5307C67.0868 12.0305 67.166 12.498 67.3251 12.9352C67.4708 13.3527 67.6994 13.7374 67.9973 14.0668C68.2886 14.3849 68.6389 14.6377 69.0513 14.822C69.4597 15.0089 69.9153 15.1001 70.4135 15.1001C70.9045 15.1001 71.3673 15.0141 71.8019 14.8395C72.234 14.6649 72.613 14.4256 72.9344 14.1172C73.2591 13.8055 73.5228 13.4372 73.7121 13.0309C73.9081 12.609 74.0192 12.1535 74.0394 11.6898V11.5307C74.0394 11.0457 73.9477 10.5834 73.7638 10.1437C73.5851 9.71307 73.3257 9.3197 72.9992 8.98426C72.6711 8.64965 72.2802 8.38127 71.8484 8.19408C71.3964 7.99781 70.9073 7.89862 70.4135 7.9031C69.9153 7.9031 69.4597 8.00009 69.0506 8.19408C68.647 8.38132 68.288 8.65083 67.9973 8.98491C67.7011 9.32573 67.473 9.71892 67.3251 10.1437C67.1653 10.589 67.0847 11.0582 67.0868 11.5307V11.5307ZM91.4892 16.9766C91.2817 17.1809 91.0546 17.4008 90.8039 17.6362C90.5551 17.8709 90.2821 18.0907 89.983 18.2951C89.6838 18.4994 89.3611 18.6688 89.0142 18.8027C88.6579 18.9362 88.2797 19.003 87.8987 18.9999C86.8559 18.9999 85.8943 18.8078 85.0145 18.4212C84.1587 18.0492 83.3882 17.5096 82.7496 16.835C82.1146 16.1631 81.6191 15.3723 81.2636 14.4631C80.9055 13.554 80.7288 12.5763 80.7288 11.5307C80.7288 10.4773 80.9055 9.49704 81.2636 8.59046C81.601 7.71568 82.1055 6.9131 82.7496 6.22639C83.3871 5.55183 84.158 5.01372 85.0145 4.64538C85.8943 4.26387 86.8559 4.07182 87.8987 4.07182C88.3209 4.07182 88.7072 4.1326 89.0547 4.25352C89.3917 4.36846 89.7128 4.52465 90.0105 4.71845C90.2972 4.9105 90.5636 5.12259 90.8039 5.36249C91.0461 5.59981 91.2745 5.83453 91.4892 6.06214V0.863249C91.4892 0.62141 91.5658 0.417076 91.7138 0.250245C91.8643 0.0834152 92.0869 0 92.3867 0H94.977C95.0765 0 95.1812 0.0226317 95.2938 0.0633693C95.4038 0.106047 95.5059 0.164243 95.5982 0.239899C95.6898 0.315554 95.7671 0.40673 95.8234 0.512777C95.8823 0.618824 95.9105 0.735217 95.9105 0.863896V17.8631C95.9105 18.4464 95.5982 18.7393 94.977 18.7393H92.7212C92.568 18.7393 92.4482 18.7199 92.3638 18.6811C92.2804 18.6445 92.2074 18.5884 92.151 18.5175C92.0866 18.4341 92.0342 18.3422 91.9952 18.2446C91.9494 18.136 91.8931 18.0073 91.8237 17.8631L91.4892 16.9766ZM84.8712 11.5307C84.8712 12.0305 84.9504 12.498 85.1068 12.9352C85.2543 13.3524 85.4834 13.7369 85.7811 14.0668C86.073 14.3849 86.4232 14.6377 86.8324 14.822C87.2448 15.0089 87.6997 15.1001 88.1979 15.1001C88.6728 15.1036 89.1439 15.015 89.5843 14.8395C90.0065 14.6736 90.392 14.4283 90.7194 14.1172C91.0439 13.8054 91.3073 13.4371 91.4964 13.0309C91.6924 12.609 91.8036 12.1535 91.8237 11.6898V11.5307C91.8241 10.5802 91.4499 9.66688 90.7803 8.98426C90.4533 8.6486 90.0625 8.38007 89.6301 8.19408C89.1791 7.99758 88.6908 7.89838 88.1979 7.9031C87.6997 7.9031 87.2441 8.00009 86.8324 8.19408C86.4299 8.38203 86.0719 8.65147 85.7817 8.98491C85.4856 9.32623 85.2567 9.71924 85.1068 10.1437C84.9492 10.5895 84.8695 11.0585 84.8712 11.5307V11.5307ZM98.9714 0.876182C98.9714 0.633696 99.0323 0.429362 99.1547 0.262531C99.2778 0.0957012 99.4898 0.0129323 99.7897 0.0129323H102.61C102.686 0.0129323 102.766 0.0323312 102.85 0.0756553C102.935 0.116393 103.014 0.173943 103.086 0.250245C103.16 0.325901 103.221 0.417076 103.269 0.523123C103.321 0.62917 103.346 0.747503 103.346 0.876182V17.8631C103.346 18.1509 103.262 18.3707 103.098 18.5175C102.932 18.6662 102.72 18.7393 102.459 18.7393H99.789C99.4898 18.7393 99.2784 18.6662 99.1553 18.5175C99.0323 18.3707 98.9707 18.1509 98.9707 17.8631L98.9714 0.876182ZM118.354 17.0122C117.687 17.621 116.915 18.1076 116.076 18.449C115.231 18.7949 114.336 18.9669 113.393 18.9669C112.342 18.9669 111.35 18.7775 110.414 18.3985C109.498 18.0338 108.661 17.4988 107.949 16.8227C107.239 16.1475 106.669 15.3429 106.269 14.4534C105.855 13.5436 105.647 12.5537 105.647 11.4854C105.647 10.8181 105.73 10.1715 105.896 9.54553C106.059 8.92154 106.294 8.33569 106.596 7.78994C106.9 7.24446 107.271 6.73801 107.701 6.282C108.573 5.36199 109.681 4.69252 110.908 4.3447C111.536 4.16235 112.201 4.07182 112.899 4.07182C113.536 4.07182 114.152 4.15524 114.753 4.32207C115.934 4.64872 117.011 5.26666 117.883 6.11775C118.315 6.53541 118.694 7.00358 119.011 7.51189C119.325 8.01432 119.568 8.55296 119.742 9.12587C119.914 9.69685 120 10.2879 120 10.8944C120 11.2882 119.995 11.6089 119.982 11.8592C119.972 12.1094 119.914 12.3086 119.806 12.4579C119.698 12.6041 119.52 12.7075 119.269 12.7632C119.021 12.8214 118.653 12.8492 118.169 12.8492H109.882C109.959 13.3341 110.115 13.7409 110.35 14.0668C110.583 14.3927 110.854 14.6526 111.16 14.8447C111.468 15.0386 111.795 15.1757 112.14 15.2585C112.459 15.3392 112.787 15.3817 113.117 15.3852C113.393 15.3852 113.676 15.3574 113.968 15.2992C114.255 15.2451 114.538 15.1692 114.814 15.0723C115.073 14.9841 115.324 14.8742 115.564 14.7438C115.789 14.617 115.973 14.4858 116.111 14.3493C116.233 14.2511 116.339 14.178 116.425 14.1295C116.511 14.0798 116.609 14.0537 116.709 14.0538C116.809 14.0538 116.912 14.0894 117.014 14.1573C117.118 14.2258 117.234 14.3241 117.364 14.4534L118.583 15.8172C118.669 15.9155 118.722 16.0041 118.744 16.0849C118.768 16.1631 118.78 16.2465 118.78 16.33C118.783 16.4708 118.738 16.6085 118.653 16.7212C118.568 16.8298 118.469 16.9281 118.354 17.0122V17.0122ZM112.818 7.53969C112.518 7.53969 112.229 7.59789 111.948 7.71687C111.669 7.83326 111.406 7.9891 111.16 8.18632C110.914 8.38486 110.692 8.61049 110.498 8.85881C110.312 9.09534 110.152 9.35093 110.021 9.62119H115.904C115.749 9.33644 115.574 9.06288 115.38 8.80256C115.194 8.55576 114.978 8.33345 114.735 8.14106C114.486 7.9487 114.206 7.79917 113.907 7.69876C113.595 7.59271 113.232 7.53969 112.818 7.53969V7.53969Z"
      fill="white"
    />
</g></svg>
