<svg xmlns="http://www.w3.org/2000/svg" width="20" height="17"><path fill="#1DA1F2" d="M20 1.924a8.192 8.192 0 0 1-2.357.646A4.11 4.11 0 0 0 19.448.3a8.22 8.22 0 0 1-2.606.996A4.096 4.096 0 0 0 13.847 0c-2.65 0-4.596 2.472-3.998 5.037A11.648 11.648 0 0 1 1.392.752a4.109 4.109 0 0 0 1.27 5.478 4.086 4.086 0 0 1-1.858-.513C.76 7.616 2.122 9.395 4.095 9.79a4.113 4.113 0 0 1-1.853.07 4.106 4.106 0 0 0 3.833 2.849A8.25 8.25 0 0 1 0 14.41a11.616 11.616 0 0 0 6.29 1.843c7.618 0 11.922-6.434 11.663-12.205A8.354 8.354 0 0 0 20 1.924z"/></svg>