<svg xmlns="http://www.w3.org/2000/svg" width="120" height="19"><path d="M14.003.318c-3.869-.002-7.905.859-11.98 1.976-.517.103-1.023.437-1.29.85-.245.39-.334.781-.41 1.193-.397 2.19-.349 4.342-.267 6.724.018.545.102 1.195.358 1.586.271.397.732.649 1.283.732a47.05 47.05 0 0 0 2.12.261l-.155 4.304a.922.922 0 0 0 .355.79c.19.142.4.205.614.22.43.033.936-.151 1.186-.62 1.1-2.093 1.79-3.014 3.164-4.404 3.587.089 6.716-.108 10.259-.369 1.253-.03 2.114-1.043 2.342-1.851.677-2.094.785-4.678.856-7.292.03-1.036-.333-2.051-.977-2.59-.613-.49-1.352-.666-2.032-.848-1.887-.422-3.775-.649-5.427-.662Zm5.155 1.637c.68.182 1.28.359 1.656.662.632.661.611 1.104.604 1.818-.072 2.534-.194 4.994-.775 6.858-.25.695-.683 1.19-1.506 1.263-3.61.265-6.743.47-10.371.366a.527.527 0 0 0-.381.149c-1.525 1.52-2.304 2.58-3.468 4.79-.026.05-.085.08-.158.085-.046-.002-.067-.04-.07-.073l.156-4.668a.516.516 0 0 0-.129-.343.529.529 0 0 0-.326-.175 48.55 48.55 0 0 1-2.534-.308c-.363-.053-.496-.151-.595-.297-.174-.41-.172-.663-.184-1.054-.083-2.364-.12-4.428.245-6.482.036-.305.15-.616.273-.873.203-.314.512-.359.824-.445 3.984-1.086 7.881-1.9 11.553-1.902 1.8.063 3.687.243 5.186.629ZM5.395 5.959c-.55.649-.496 1.53-.072 2.121.223.31.568.558.988.615.547.045.895-.175 1.268-.425.678-.58.746-1.597.23-2.331a1.423 1.423 0 0 0-1.11-.612c-.588.005-.986.263-1.304.632Zm5.938-.53c-.547.017-.99.39-1.26.795-.308.459-.489 1.038-.239 1.606.481 1.089 2.143 1.076 2.806-.032.303-.511.227-1.092 0-1.51-.228-.423-.571-.766-1.07-.845a1.28 1.28 0 0 0-.237-.015Zm4.82.1a1.918 1.918 0 0 0-.51.056c-.656.175-1.216.843-1.132 1.7.044.432.243.853.607 1.141.362.291.886.42 1.442.309.636-.13 1.033-.637 1.163-1.127.133-.49.1-.988-.207-1.392-.16-.21-.365-.38-.6-.5a1.755 1.755 0 0 0-.763-.187Zm-9.498.803c.12.003.218.04.317.182.223.318.161.799-.063.993-.223.192-.364.21-.463.197-.098-.015-.197-.08-.287-.204-.169-.238-.22-.622.005-.897a.767.767 0 0 1 .491-.27Zm4.749.112a.84.84 0 0 1 .335.315c.102.19.12.364.023.526-.29.485-.903.353-.995.143-.036-.08-.01-.404.158-.653.17-.253.379-.347.478-.331Zm5.29.368c.031.044.108.318.049.536-.059.22-.156.353-.392.401-.3.064-.47 0-.598-.1a.678.678 0 0 1-.23-.458c-.046-.454.12-.56.384-.629.304-.076.65.056.788.25Zm12.157-4.458a.573.573 0 0 1 .143-.346.435.435 0 0 1 .35-.154h3.42c.115 0 .235.048.358.141a.44.44 0 0 1 .183.36v5.39h5.721v-5.39a.49.49 0 0 1 .321-.467.508.508 0 0 1 .198-.033h3.372c.154 0 .287.037.402.113.115.075.174.197.174.363V18.24c0 .166-.051.29-.15.373a.59.59 0 0 1-.392.126h-3.406a.557.557 0 0 1-.376-.126c-.095-.083-.143-.207-.143-.373v-6.46h-5.72v6.46c0 .159-.051.283-.156.368-.103.089-.243.131-.42.131h-3.385c-.322 0-.486-.148-.494-.444V2.355Zm31.493 16.191a.723.723 0 0 1-.317.16c-.104.022-.21.033-.317.034h-1.739a.81.81 0 0 1-.355-.073.782.782 0 0 1-.253-.199 1.189 1.189 0 0 1-.175-.286 2.378 2.378 0 0 1-.115-.328l-.355-1.455c-.115.235-.284.5-.501.801-.238.317-.518.6-.834.84-.367.279-.775.501-1.209.66-.468.18-1.005.268-1.611.268-.875 0-1.67-.167-2.383-.5a5.475 5.475 0 0 1-1.826-1.364 6.27 6.27 0 0 1-1.166-2.018 7.243 7.243 0 0 1-.414-2.464V5.176c0-.288.061-.508.19-.655.124-.149.327-.222.602-.222h2.66c.33 0 .555.055.68.164.123.111.184.323.184.644v7.401c0 .326.074.634.222.927a2.79 2.79 0 0 0 1.427 1.301c.312.13.63.194.952.194.276 0 .562-.065.856-.194.297-.13.568-.3.818-.515.248-.218.455-.472.617-.763.161-.293.24-.602.24-.927V5.14c0-.129.026-.257.074-.386a.624.624 0 0 1 .225-.295c.1-.061.195-.104.282-.127.089-.023.191-.033.306-.033h2.601c.33 0 .568.078.713.238.146.159.22.373.22.639v12.723a.808.808 0 0 1-.1.396.709.709 0 0 1-.268.285l.07-.035Zm13.363-1.568c-.207.204-.437.424-.685.66a6.88 6.88 0 0 1-.823.658c-.3.204-.622.374-.967.508a3.12 3.12 0 0 1-1.118.197c-1.042 0-2.004-.192-2.881-.579a6.9 6.9 0 0 1-2.269-1.586 7.329 7.329 0 0 1-1.485-2.372 7.996 7.996 0 0 1-.535-2.932c0-1.054.18-2.034.535-2.94a7.316 7.316 0 0 1 1.486-2.365 6.81 6.81 0 0 1 2.268-1.58c.877-.382 1.839-.574 2.881-.574.394-.005.786.057 1.159.182.336.114.657.27.954.464.288.192.552.405.795.644.24.238.47.473.685.7V.863c0-.242.075-.446.223-.613.15-.167.376-.25.674-.25h2.591c.1 0 .205.023.314.063.113.043.215.101.307.177a.895.895 0 0 1 .223.273.708.708 0 0 1 .087.35v17c0 .583-.31.876-.93.876h-2.26a.865.865 0 0 1-.354-.058.54.54 0 0 1-.213-.164 1.058 1.058 0 0 1-.156-.272 8.713 8.713 0 0 0-.174-.382l-.332-.886Zm-6.62-5.446c0 .5.079.967.238 1.404.146.418.374.802.672 1.132.292.318.642.57 1.054.755a3.24 3.24 0 0 0 1.362.278c.492 0 .954-.086 1.389-.26a3.522 3.522 0 0 0 1.91-1.81 3.55 3.55 0 0 0 .327-1.34v-.16c0-.484-.091-.947-.275-1.386a3.638 3.638 0 0 0-1.915-1.95 3.523 3.523 0 0 0-1.435-.29 3.145 3.145 0 0 0-2.417 1.08c-.296.342-.524.735-.672 1.16-.16.445-.24.914-.238 1.387Zm24.402 5.446c-.207.204-.434.424-.685.66a6.71 6.71 0 0 1-.821.658c-.3.204-.622.374-.969.508-.356.133-.734.2-1.115.197-1.043 0-2.005-.192-2.885-.579a6.913 6.913 0 0 1-2.264-1.586 7.264 7.264 0 0 1-1.486-2.372 7.929 7.929 0 0 1-.535-2.932c0-1.054.177-2.034.535-2.94a7.292 7.292 0 0 1 1.486-2.365 6.826 6.826 0 0 1 2.264-1.58c.88-.382 1.842-.574 2.885-.574.422 0 .808.06 1.156.182.337.114.658.27.955.464.287.192.554.405.794.644.242.238.47.473.685.7V.863c0-.242.077-.446.225-.613.15-.167.373-.25.673-.25h2.59c.1 0 .204.023.317.063.11.043.212.101.304.177a.905.905 0 0 1 .225.273.708.708 0 0 1 .088.35v17c0 .583-.313.876-.934.876h-2.256a.88.88 0 0 1-.357-.058.558.558 0 0 1-.213-.164 1.137 1.137 0 0 1-.156-.272 8.37 8.37 0 0 0-.171-.382l-.335-.886Zm-6.618-5.446c0 .5.08.967.236 1.404a3.187 3.187 0 0 0 1.726 1.887c.412.187.867.278 1.365.278.475.004.946-.085 1.386-.26a3.512 3.512 0 0 0 1.912-1.81c.196-.421.308-.877.328-1.34v-.16a3.634 3.634 0 0 0-2.194-3.336 3.502 3.502 0 0 0-1.432-.29c-.498 0-.954.096-1.366.29-.402.188-.76.457-1.05.79a3.596 3.596 0 0 0-.675 1.16 4.116 4.116 0 0 0-.236 1.387ZM98.971.876c0-.242.061-.447.184-.613.123-.167.335-.25.635-.25h2.82a.52.52 0 0 1 .24.063c.085.04.164.098.236.174a.94.94 0 0 1 .183.273.792.792 0 0 1 .077.353v16.987c0 .288-.084.508-.248.654-.166.15-.378.222-.639.222h-2.67c-.3 0-.51-.073-.634-.222-.123-.146-.184-.366-.184-.654V.876Zm19.383 16.136a7.665 7.665 0 0 1-2.278 1.437 7.015 7.015 0 0 1-2.683.518 7.858 7.858 0 0 1-2.979-.569 7.734 7.734 0 0 1-2.465-1.575 7.533 7.533 0 0 1-1.68-2.37 7.083 7.083 0 0 1-.622-2.968c0-.667.083-1.313.249-1.94a7.56 7.56 0 0 1 .7-1.755 7.568 7.568 0 0 1 1.105-1.508 7.076 7.076 0 0 1 3.207-1.937 7.113 7.113 0 0 1 1.991-.273c.637 0 1.253.083 1.854.25a7.245 7.245 0 0 1 3.13 1.796c.432.417.811.886 1.128 1.394.314.502.557 1.041.731 1.614.172.57.258 1.162.258 1.768 0 .394-.005.715-.018.965-.01.25-.068.45-.176.599-.108.146-.286.25-.537.305-.248.058-.616.086-1.1.086h-8.287c.077.485.233.892.468 1.218.233.326.504.586.81.778.308.194.635.33.98.413.319.081.647.124.977.127.276 0 .559-.028.851-.086.287-.054.57-.13.846-.227.259-.088.51-.198.75-.328.225-.127.409-.258.547-.395.122-.098.228-.171.314-.22a.566.566 0 0 1 .284-.075c.1 0 .203.035.305.103.104.069.22.167.35.296l1.219 1.364a.71.71 0 0 1 .197.513.628.628 0 0 1-.127.391 1.515 1.515 0 0 1-.299.291Zm-5.536-9.472c-.3 0-.589.058-.87.177a3.264 3.264 0 0 0-.788.47 4.19 4.19 0 0 0-1.139 1.435h5.883a6.852 6.852 0 0 0-.524-.82 3.626 3.626 0 0 0-.645-.66 2.826 2.826 0 0 0-.828-.443 3.385 3.385 0 0 0-1.089-.16Z" fill="#fff"/></svg>