<svg xmlns="http://www.w3.org/2000/svg" width="64" height="64"><g fill="none"><path fill="#676E74" d="M26.375 52.625h11.25V64h-11.25z"/><path fill="#333637" d="M32 52.625h5.625V64H32z"/><path fill="#4C545A" d="M22.625 47h18.75v9.375h-18.75z"/><path fill="#52585C" d="M32 47h9.375v9.375H32z"/><path fill="#FFDA2D" d="M45.012 36.725c-2.325 1.913-3.637 4.612-3.637 7.425V47h-18.75v-2.85c0-2.85-1.238-5.512-3.3-7.125-5.062-3.938-7.95-9.862-7.95-16.275a20.585 20.585 0 0 1 7.613-16.013C22.7 1.737 27.238 0 32 0c1.462 0 2.962.15 4.425.45 8.1 1.688 14.475 8.45 15.9 16.663 1.275 7.5-1.425 14.85-7.313 19.612z"/><path fill="#FDBF00" d="M45.012 36.725c-2.325 1.913-3.637 4.612-3.637 7.425V47H32V0c1.462 0 2.962.15 4.425.45 8.1 1.688 14.475 8.45 15.9 16.663 1.275 7.5-1.425 14.85-7.313 19.612z"/><path fill="#676E74" d="M18.875 45.125h26.25v3.75h-26.25z"/><path fill="#FF9100" d="m39.956 10.143 2.651 2.651-3.979 3.978-2.651-2.651z"/><path fill="#FDBF00" d="m25.372 24.727 2.651 2.651-3.979 3.979-2.651-2.651zm4.753 3.523h3.75v5.625h-3.75z"/><path fill="#FF9100" d="m38.628 24.727 3.979 3.979-2.651 2.651-3.979-3.979zm.872-5.852h5.625v3.75H39.5z"/><path fill="#FDBF00" d="m24.044 10.143 3.979 3.979-2.651 2.65-3.979-3.978zm-5.169 8.732H24.5v3.75h-5.625zm11.25-11.25h3.75v5.625h-3.75z"/><path d="M0 18.875h7.625v3.75H0zm6.585-4.065-5.75-3.75 2.08-3.12 5.75 3.75zm-3.67 18.75-2.08-3.12 5.75-3.75 2.08 3.12z" fill="#FFDA2D"/><path fill="#FDBF00" d="M56.375 18.875H64v3.75h-7.625zm4.71 14.685-5.75-3.75 2.08-3.12 5.75 3.75zm-3.67-18.75-2.08-3.12 5.75-3.75 2.08 3.12z"/><path fill="#FF9100" d="M32 7.625h1.875v5.625H32zm0 20.625h1.875v5.625H32z"/><path fill="#333637" d="M32 45.125h13.125v3.75H32z"/><path fill="#FDBF00" d="M32 11.375c-5.175 0-9.375 4.2-9.375 9.375s4.2 9.375 9.375 9.375 9.375-4.2 9.375-9.375-4.2-9.375-9.375-9.375z"/><path fill="#FF9100" d="M32 30.125v-18.75c5.175 0 9.375 4.2 9.375 9.375s-4.2 9.375-9.375 9.375z"/><path fill="#FFDA2D" d="M30.125 18.875h3.75v3.75h-3.75z"/><path fill="#FDBF00" d="M32 18.875h1.875v3.75H32z"/></g></svg>